HIERARCHY
ROOT Hips
{
	OFFSET 0.000000 0.000000 0.000000
	CHANNELS 6 Xposition Yposition Zposition Zrotation Yrotation Xrotation 
	JOINT LHipJoint
	{
		OFFSET 0.000000 0.000000 0.000000
		CHANNELS 3 Zrotation Yrotation Xrotation
		JOINT LeftUpLeg
		{
			OFFSET 1.363060 -1.794630 0.839290
			CHANNELS 3 Zrotation Yrotation Xrotation
			JOINT LeftLeg
			{
				OFFSET 2.448110 -6.726130 0.000000
				CHANNELS 3 Zrotation Yrotation Xrotation
				JOINT LeftFoot
				{
					OFFSET 2.562200 -7.039590 0.000000
					CHANNELS 3 Zrotation Yrotation Xrotation
					JOINT LeftToeBase
					{
						OFFSET 0.157640 -0.433110 2.322550
						CHANNELS 3 Zrotation Yrotation Xrotation
						End Site
						{
							OFFSET 0.000000 0.000000 0.000000
						}
					}
				}
			}
		}
	}
	JOINT RHipJoint
	{
		OFFSET 0.000000 0.000000 0.000000
		CHANNELS 3 Zrotation Yrotation Xrotation
		JOINT RightUpLeg
		{
			OFFSET -1.305520 -1.794630 0.839290
			CHANNELS 3 Zrotation Yrotation Xrotation
			JOINT RightLeg
			{
				OFFSET -2.542530 -6.985550 0.000000
				CHANNELS 3 Zrotation Yrotation Xrotation
				JOINT RightFoot
				{
					OFFSET -2.568260 -7.056230 0.000000
					CHANNELS 3 Zrotation Yrotation Xrotation
					JOINT RightToeBase
					{
						OFFSET -0.164730 -0.452590 2.363150
						CHANNELS 3 Zrotation Yrotation Xrotation
						End Site
						{
							OFFSET 0.000000 0.000000 0.000000
						}
					}
				}
			}
		}
	}
}
MOTION
Frames: 31
Frame Time: 0.008333
1.202374 17.488958 1.537692 8.938568 -58.803581 6.935655 -9.486686 2.294205 7.112598 -7.550475 -10.822382 -16.463968 -2.542247 -1.642031 -1.587689 0.215158 4.994154 7.764747 1.880500 -0.000000 -48.877700 11.512873 -3.129678 -0.415879 -0.226125 -26.576023 -7.335713 1.871455 0.810253 -3.624689 -2.057300 -14.923678 13.053780 -6.071000 -0.000000 -74.582000
1.196720 17.490859 1.549611 8.652469 -58.716674 6.957230 -9.492496 2.324630 7.128630 -7.399267 -11.012455 -16.071252 -2.501859 -1.627157 -1.702928 0.240930 5.135959 7.685871 1.903300 0.000000 -48.819400 11.505209 -3.154942 -0.510263 -0.258574 -26.789503 -6.861847 1.875950 0.808973 -3.813891 -2.036047 -14.931708 13.372193 -6.139699 -0.000000 -74.730700
1.192899 17.492625 1.561576 8.349707 -58.655853 6.991533 -9.505716 2.349252 7.131436 -7.239652 -11.190890 -15.683286 -2.457109 -1.609996 -1.788648 0.270318 5.294535 7.576951 1.926599 0.000000 -48.751100 11.488089 -3.177051 -0.607297 -0.275360 -26.953797 -6.409946 1.875817 0.803339 -3.943791 -2.024063 -14.981578 13.652544 -6.217800 0.000000 -74.847801
1.189986 17.493873 1.573689 8.032216 -58.623631 7.049817 -9.520959 2.371651 7.130987 -7.073303 -11.355451 -15.325930 -2.410419 -1.592782 -1.837399 0.302245 5.463439 7.433442 1.948700 -0.000000 -48.675700 11.465807 -3.197971 -0.694398 -0.266340 -27.065868 -6.015992 1.872194 0.794587 -3.995807 -2.021730 -15.070780 13.870685 -6.299700 0.000000 -74.927100
1.188572 17.494415 1.585478 7.691817 -58.610600 7.114922 -9.537143 2.391550 7.123744 -6.900892 -11.503694 -14.972188 -2.361860 -1.574248 -1.849704 0.335470 5.632726 7.254980 1.966000 0.000000 -48.613599 11.440286 -3.218392 -0.780152 -0.243122 -27.154161 -5.647736 1.865878 0.781642 -3.980605 -2.026354 -15.185996 14.036401 -6.381100 0.000001 -74.994100
1.187461 17.494032 1.597177 7.343003 -58.620909 7.204430 -9.551398 2.410591 7.119766 -6.725979 -11.638004 -14.665259 -2.313678 -1.556838 -1.820391 0.369630 5.800669 7.041147 1.978700 -0.000000 -48.554399 11.412971 -3.237081 -0.851442 -0.191974 -27.204683 -5.359326 1.857840 0.766229 -3.876101 -2.039578 -15.330128 14.121365 -6.457799 0.000000 -75.026000
1.186535 17.492680 1.608612 6.990707 -58.648331 7.315592 -9.563877 2.428457 7.118869 -6.549944 -11.760913 -14.405951 -2.266348 -1.540374 -1.750804 0.404074 5.961828 6.794557 1.985200 -0.000001 -48.501400 11.384108 -3.252841 -0.911083 -0.115649 -27.226750 -5.148052 1.848562 0.748633 -3.687292 -2.060675 -15.499958 14.128992 -6.528801 -0.000000 -75.040700
1.185698 17.490336 1.619557 6.641777 -58.686201 7.441788 -9.574428 2.445267 7.120820 -6.375530 -11.876228 -14.190367 -2.220352 -1.524692 -1.646342 0.438471 6.114187 6.520594 1.985500 0.000000 -48.454900 11.354287 -3.264332 -0.962687 -0.020037 -27.231476 -5.007550 1.838578 0.729028 -3.419814 -2.088219 -15.687955 14.063531 -6.590900 -0.000000 -75.033600
1.184413 17.487006 1.630045 6.304616 -58.728920 7.585405 -9.581624 2.462105 7.129369 -6.205489 -11.988707 -14.030307 -2.176797 -1.510481 -1.509778 0.472319 6.254828 6.224091 1.979400 -0.000001 -48.409400 11.324992 -3.271010 -1.003546 0.094629 -27.219349 -4.945565 1.828136 0.708660 -3.079006 -2.122048 -15.893715 13.925320 -6.643700 0.000001 -74.992600
1.182752 17.482797 1.639948 5.983399 -58.767417 7.737645 -9.586263 2.478589 7.142623 -6.041924 -12.100788 -13.913982 -2.135886 -1.497178 -1.349159 0.505015 6.380129 5.911440 1.966800 0.000000 -48.366000 11.296325 -3.272144 -1.040411 0.219681 -27.209733 -4.946845 1.818201 0.687022 -2.676267 -2.159745 -16.106148 13.733638 -6.685800 0.000000 -74.972700
1.180363 17.477829 1.649298 5.686239 -58.796411 7.898173 -9.586447 2.495171 7.163925 -5.888546 -12.219068 -13.848180 -2.098600 -1.485709 -1.171748 0.536588 6.493365 5.590678 1.949700 0.000001 -48.315100 11.270056 -3.267756 -1.069230 0.353392 -27.194661 -5.013601 1.808185 0.665360 -2.221142 -2.201659 -16.326445 13.485426 -6.716700 0.000000 -74.896700
1.177153 17.472207 1.658164 5.418349 -58.809561 8.060456 -9.583291 2.511621 7.191627 -5.747085 -12.343762 -13.822748 -2.065143 -1.475733 -0.985689 0.566401 6.591070 5.267482 1.928000 0.000000 -48.256000 11.246093 -3.257631 -1.095790 0.488365 -27.192937 -5.134667 1.799199 0.642968 -1.723940 -2.245334 -16.544109 13.204805 -6.736700 -0.000000 -74.862800
1.173146 17.466093 1.666543 5.184442 -58.805022 8.218425 -9.576042 2.528138 7.226042 -5.620975 -12.477862 -13.831448 -2.035926 -1.467565 -0.802013 0.594566 6.677515 4.951235 1.904300 0.000001 -48.184500 11.225379 -3.241930 -1.119270 0.619424 -27.199777 -5.299108 1.790498 0.620670 -1.199629 -2.290440 -16.758559 12.896043 -6.746500 -0.000000 -74.814000
1.168381 17.459670 1.674527 4.986349 -58.782511 8.366983 -9.565311 2.544956 7.265930 -5.512123 -12.619460 -13.864249 -2.011069 -1.461158 -0.630158 0.620792 6.752597 4.647882 1.879300 0.000000 -48.100000 11.207880 -3.220770 -1.142067 0.741280 -27.221946 -5.497074 1.782524 0.598358 -0.657447 -2.335249 -16.962242 12.571147 -6.745400 0.000000 -74.756200
1.162972 17.453083 1.682140 4.825791 -58.744431 8.498892 -9.551631 2.562184 7.309009 -5.422661 -12.765168 -13.907352 -1.990626 -1.456474 -0.481223 0.644940 6.818130 4.364493 1.854600 -0.000000 -48.004900 11.193635 -3.194489 -1.165779 0.848405 -27.259181 -5.713166 1.774858 0.576279 -0.110652 -2.378790 -17.152152 12.238873 -6.734600 0.000000 -74.672701
1.156972 17.446424 1.689500 4.701544 -58.694840 8.613247 -9.535692 2.580349 7.354379 -5.353603 -12.908510 -13.956574 -1.974746 -1.453600 -0.359603 0.666516 6.871816 4.103824 1.830200 0.000000 -47.897400 11.182527 -3.163572 -1.190673 0.939524 -27.315021 -5.945616 1.767778 0.554351 0.435944 -2.420170 -17.326200 11.911512 -6.716300 -0.000000 -74.629500
1.150489 17.439808 1.696657 4.612536 -58.638756 8.707432 -9.517966 2.599637 7.400240 -5.306130 -13.042991 -14.003419 -1.963569 -1.452770 -0.271981 0.685170 6.913251 3.869460 1.806600 -0.000000 -47.780300 11.174532 -3.128738 -1.216553 1.013229 -27.387298 -6.187227 1.761144 0.532833 0.974915 -2.458912 -17.483066 11.592352 -6.691300 -0.000000 -74.601100
1.143892 17.433336 1.703487 4.552982 -58.582730 8.776218 -9.500002 2.619183 7.440905 -5.280047 -13.157968 -14.029108 -1.956792 -1.453654 -0.226652 0.700363 6.941209 3.666129 1.784300 -0.000000 -47.664300 11.168809 -3.090957 -1.244560 1.067162 -27.464688 -6.414950 1.753523 0.512239 1.490486 -2.495788 -17.628791 11.282027 -6.662400 -0.000000 -74.528900
1.137126 17.427045 1.710109 4.521204 -58.531426 8.823291 -9.481618 2.639517 7.477832 -5.275766 -13.248846 -14.039855 -1.954746 -1.456871 -0.221436 0.711766 6.953853 3.492534 1.762900 0.000000 -47.544300 11.165762 -3.050922 -1.272758 1.104312 -27.552616 -6.642748 1.745806 0.492142 1.988906 -2.530425 -17.762146 10.987628 -6.631300 -0.000000 -74.507100
1.130348 17.420987 1.716387 4.511443 -58.490601 8.848304 -9.464400 2.659708 7.505940 -5.291011 -13.304475 -14.023718 -1.957106 -1.462159 -0.259325 0.718670 6.947574 3.350317 1.741901 0.000000 -47.431600 11.164378 -3.010051 -1.300496 1.127060 -27.634862 -6.851730 1.736544 0.473547 2.454469 -2.564570 -17.893773 10.705245 -6.601500 -0.000000 -74.453700
1.123764 17.415197 1.722283 4.515499 -58.464701 8.856327 -9.449244 2.679266 7.523882 -5.322859 -13.318255 -13.981942 -1.963567 -1.469483 -0.337012 0.720643 6.919120 3.237555 1.720500 -0.000000 -47.328799 11.163909 -2.969554 -1.325950 1.140614 -27.703575 -7.040479 1.725404 0.456906 2.882433 -2.599477 -18.031387 10.435094 -6.576500 0.000001 -74.375800
1.117184 17.409644 1.727740 4.536354 -58.455911 8.846960 -9.435577 2.698117 7.532574 -5.371216 -13.291618 -13.916070 -1.974176 -1.479311 -0.453592 0.718021 6.871553 3.153785 1.699299 -0.000000 -47.235400 11.164991 -2.929799 -1.348250 1.145481 -27.760906 -7.214856 1.712711 0.441980 3.275409 -2.635275 -18.175025 10.178181 -6.556300 0.000000 -74.310100
1.110814 17.404362 1.732650 4.567654 -58.466871 8.823980 -9.424122 2.715557 7.530942 -5.432444 -13.222978 -13.826952 -1.988312 -1.491318 -0.604656 0.710881 6.804486 3.096648 1.678100 -0.000000 -47.153900 11.166720 -2.891646 -1.365921 1.146230 -27.796346 -7.369069 1.698119 0.429678 3.625460 -2.673118 -18.330316 9.927343 -6.541600 -0.000000 -74.200300
1.104545 17.399295 1.736915 4.612220 -58.497901 8.785366 -9.414256 2.731425 7.520137 -5.505984 -13.118750 -13.713731 -2.005610 -1.505624 -0.790278 0.700114 6.724579 3.066474 1.658100 -0.000000 -47.083500 11.169668 -2.855010 -1.379560 1.140911 -27.813777 -7.504606 1.681668 0.419583 3.933868 -2.712947 -18.497476 9.688064 -6.533700 0.000000 -74.102700
1.098413 17.394487 1.740659 4.658084 -58.549001 8.745519 -9.407781 2.745435 7.499730 -5.582971 -12.974056 -13.589868 -2.025072 -1.521218 -0.995393 0.685166 6.622997 3.054446 1.636200 -0.000000 -47.025800 11.171714 -2.821541 -1.385992 1.142233 -27.796840 -7.616725 1.663054 0.413646 4.187026 -2.756588 -18.687955 9.455715 -6.536201 0.000000 -73.952200
1.092420 17.389895 1.743683 4.714617 -58.619795 8.693920 -9.402701 2.757600 7.472678 -5.667156 -12.806118 -13.449524 -2.046297 -1.538377 -1.224936 0.668223 6.516638 3.063380 1.616300 -0.000000 -46.976400 11.174424 -2.789542 -1.388313 1.139813 -27.760870 -7.709609 1.643197 0.410576 4.394162 -2.801681 -18.886982 9.231974 -6.543700 -0.000000 -73.795700
1.086406 17.385489 1.745988 4.785318 -58.709274 8.630331 -9.398676 2.768123 7.440538 -5.756810 -12.623581 -13.294685 -2.068557 -1.556746 -1.475436 0.650438 6.412180 3.090822 1.599200 -0.000000 -46.933600 11.177867 -2.758633 -1.387248 1.132353 -27.707697 -7.781628 1.622346 0.410609 4.553172 -2.847492 -19.090939 9.017772 -6.555100 0.000000 -73.636599
1.080591 17.381300 1.747850 4.855995 -58.815660 8.569752 -9.397278 2.777169 7.404207 -5.844641 -12.423295 -13.143914 -2.090863 -1.574985 -1.727397 0.631398 6.300306 3.125709 1.581400 0.000000 -46.894500 11.179999 -2.729748 -1.381084 1.130574 -27.631784 -7.835618 1.601230 0.414850 4.659689 -2.893963 -19.301221 8.812235 -6.571200 0.000000 -73.439300
1.074822 17.377279 1.749044 4.943934 -58.939235 8.494380 -9.396093 2.784940 7.366213 -5.936861 -12.226943 -12.982020 -2.112736 -1.593585 -1.993674 0.614042 6.205224 3.174032 1.568700 0.000001 -46.857201 11.182949 -2.700400 -1.374577 1.118246 -27.549875 -7.869872 1.580293 0.421744 4.722282 -2.938098 -19.500167 8.618629 -6.586000 -0.000000 -73.250600
1.069186 17.373460 1.749975 5.034151 -59.077863 8.423030 -9.397054 2.792028 7.327107 -6.026281 -12.024376 -12.833937 -2.133630 -1.611064 -2.248583 0.597051 6.109858 3.221791 1.555600 -0.000000 -46.819200 11.184580 -2.671986 -1.365034 1.108776 -27.456755 -7.891545 1.560518 0.432424 4.739076 -2.979826 -19.689589 8.436971 -6.600900 -0.000000 -73.042400
1.063525 17.369782 1.750484 5.141853 -59.232633 8.339620 -9.398141 2.798579 7.288714 -6.118480 -11.834764 -12.682899 -2.153006 -1.627986 -2.506060 0.583163 6.037510 3.275216 1.547700 -0.000000 -46.780700 11.186701 -2.642419 -1.356677 1.087601 -27.365345 -7.898056 1.542096 0.445357 4.718533 -3.016604 -19.854523 8.269661 -6.611000 0.000000 -72.851300
